<mxfile host="app.diagrams.net" modified="2024-02-06T12:34:03.683Z" agent="Mozilla/5.0 (Windows NT 10.0; Win64; x64) AppleWebKit/537.36 (KHTML, like Gecko) Chrome/121.0.0.0 Safari/537.36 Edg/121.0.0.0" version="23.1.0" etag="GVHVaEOOlTETW9bbtiJy" type="github">
  <diagram name="PÃ¡gina-1" id="VzQAFsm-xiUmSPo5FxEo">
    <mxGraphModel>
      <root>
        <mxCell id="0" />
        <mxCell id="1" parent="0" />
      </root>
    </mxGraphModel>
  </diagram>
</mxfile>
